<?xml version="1.0" encoding="UTF-8" standalone="no"?>
<svg
   xmlns:dc="http://purl.org/dc/elements/1.1/"
   xmlns:cc="http://creativecommons.org/ns#"
   xmlns:rdf="http://www.w3.org/1999/02/22-rdf-syntax-ns#"
   xmlns:svg="http://www.w3.org/2000/svg"
   xmlns="http://www.w3.org/2000/svg"
   xmlns:xlink="http://www.w3.org/1999/xlink"
   xmlns:sodipodi="http://sodipodi.sourceforge.net/DTD/sodipodi-0.dtd"
   xmlns:inkscape="http://www.inkscape.org/namespaces/inkscape"
   version="1.1"
   viewBox="0 0 622.1356 369.02212"
   id="svg85"
   sodipodi:docname="screenShot.svg"
   inkscape:version="0.92.4 (5da689c313, 2019-01-14)"
   width="622.13562"
   height="369.02213">
  <metadata
     id="metadata89">
    <rdf:RDF>
      <cc:Work
         rdf:about="">
        <dc:format>image/svg+xml</dc:format>
        <dc:type
           rdf:resource="http://purl.org/dc/dcmitype/StillImage" />
        <dc:title></dc:title>
      </cc:Work>
    </rdf:RDF>
  </metadata>
  <sodipodi:namedview
     pagecolor="#ffffff"
     bordercolor="#666666"
     borderopacity="1"
     objecttolerance="10"
     gridtolerance="10"
     guidetolerance="10"
     inkscape:pageopacity="0"
     inkscape:pageshadow="2"
     inkscape:window-width="1600"
     inkscape:window-height="837"
     id="namedview87"
     showgrid="false"
     inkscape:zoom="0.22705468"
     inkscape:cx="-741.32911"
     inkscape:cy="-593.60028"
     inkscape:window-x="-8"
     inkscape:window-y="-8"
     inkscape:window-maximized="1"
     inkscape:current-layer="svg85"
     fit-margin-top="0"
     fit-margin-left="0"
     fit-margin-right="0"
     fit-margin-bottom="0" />
  <defs
     id="defs35">
    <linearGradient
       id="r"
       x1="580"
       x2="579.28998"
       y1="223.78999"
       y2="310.22"
       gradientUnits="userSpaceOnUse">
      <stop
         stop-color="#333"
         offset="0"
         id="stop2" />
      <stop
         stop-color="#333"
         stop-opacity="0"
         offset="1"
         id="stop4" />
    </linearGradient>
    <linearGradient
       id="j"
       x1="564.42999"
       x2="572.52002"
       y1="186.53"
       y2="338.31"
       gradientTransform="matrix(1,0,0,0.98523,-3.2365,3.9423)"
       gradientUnits="userSpaceOnUse">
      <stop
         stop-color="#999"
         offset="0"
         id="stop7" />
      <stop
         stop-color="#999"
         stop-opacity="0"
         offset="1"
         id="stop9" />
    </linearGradient>
    <linearGradient
       id="k"
       x1="-160.71001"
       x2="-160"
       y1="750.09998"
       y2="729.85999"
       gradientUnits="userSpaceOnUse">
      <stop
         stop-color="#666"
         offset="0"
         id="stop12" />
      <stop
         stop-color="#666"
         stop-opacity="0"
         offset="1"
         id="stop14" />
    </linearGradient>
    <filter
       id="l"
       x="-0.10958"
       y="-0.12023"
       width="1.2192"
       height="1.2405"
       style="color-interpolation-filters:sRGB">
      <feGaussianBlur
         stdDeviation="3.9362014"
         id="feGaussianBlur17" />
    </filter>
    <filter
       id="n"
       x="-0.27427"
       y="-0.23509"
       width="1.5484999"
       height="1.4701999"
       style="color-interpolation-filters:sRGB">
      <feGaussianBlur
         stdDeviation="0.97952534"
         id="feGaussianBlur20" />
    </filter>
    <filter
       id="m"
       x="-0.10958"
       y="-0.12023"
       width="1.2192"
       height="1.2405"
       style="color-interpolation-filters:sRGB">
      <feGaussianBlur
         stdDeviation="3.9362014"
         id="feGaussianBlur23" />
    </filter>
    <filter
       id="o"
       x="-0.27427"
       y="-0.23509"
       width="1.5484999"
       height="1.4701999"
       style="color-interpolation-filters:sRGB">
      <feGaussianBlur
         stdDeviation="0.97952534"
         id="feGaussianBlur26" />
    </filter>
    <filter
       id="p"
       x="-0.032528002"
       y="-0.19249"
       width="1.0651"
       height="1.385"
       style="color-interpolation-filters:sRGB">
      <feGaussianBlur
         stdDeviation="0.52720638"
         id="feGaussianBlur29" />
    </filter>
    <filter
       id="q"
       x="-0.029608"
       y="-0.13705"
       width="1.0592"
       height="1.2740999"
       style="color-interpolation-filters:sRGB">
      <feGaussianBlur
         stdDeviation="0.54841294"
         id="feGaussianBlur32" />
    </filter>
    <linearGradient
       inkscape:collect="always"
       xlink:href="#j"
       id="linearGradient51"
       gradientUnits="userSpaceOnUse"
       gradientTransform="matrix(1,0,0,0.98523,-3.2365,3.9423)"
       x1="564.42999"
       y1="186.53"
       x2="572.52002"
       y2="338.31" />
    <linearGradient
       inkscape:collect="always"
       xlink:href="#k"
       id="linearGradient53"
       gradientUnits="userSpaceOnUse"
       x1="-160.71001"
       y1="750.09998"
       x2="-160"
       y2="729.85999" />
    <linearGradient
       inkscape:collect="always"
       xlink:href="#j"
       id="linearGradient55"
       gradientUnits="userSpaceOnUse"
       gradientTransform="matrix(1,0,0,0.98523,-3.2365,3.9423)"
       x1="564.42999"
       y1="186.53"
       x2="572.52002"
       y2="338.31" />
    <linearGradient
       inkscape:collect="always"
       xlink:href="#k"
       id="linearGradient57"
       gradientUnits="userSpaceOnUse"
       x1="-160.71001"
       y1="750.09998"
       x2="-160"
       y2="729.85999" />
  </defs>
  <g
     transform="matrix(0.56445089,0,0,0.56445089,-44.539992,-171.06362)"
     id="g83">
    <rect
       x="625.34998"
       y="836.64001"
       width="102.86"
       height="115.71"
       ry="4.8018999"
       id="rect37"
       style="stroke:#fdfdfd;stroke-width:0.40000001" />
    <g
       transform="translate(488.2,235.7)"
       id="g43">
      <path
         d="m -190.63,67.726 c -11.136,0 -20.094,8.9582 -20.094,20.094 v 497.66 c 0,11.136 8.9582,20.094 20.094,20.094 h 762.66 c 11.136,0 20.125,-8.9582 20.125,-20.094 V 87.82 c 0,-11.136 -8.9894,-20.094 -20.125,-20.094 z m 3.4732,29.982 753.58,2.1429 1.4286,474.29 -755.01,2.8572 z"
         id="path39"
         inkscape:connector-curvature="0" />
      <path
         d="m 346.79,67.362 229.29,0.71428 c 16.231,0.05056 17.5,23.731 17.5,23.929 -0.005,81.991 -1.497,141.84 -1.5395,223.83 l -24.889,-1.3297 -1.4286,-215 c 0,0 -204.92,-1.6029 -205,-1.0714 -4.6997,-11.094 -8.117,-20.741 -13.929,-31.071 z"
         id="path41"
         style="fill:url(#r)"
         inkscape:connector-curvature="0" />
    </g>
    <g
       transform="matrix(0.44139,0,0,0.96948,171.92,307.23)"
       id="g49">
      <path
         d="m -190.63,67.726 c -11.136,0 -20.094,8.9582 -20.094,20.094 v 497.66 c 0,11.136 8.9582,20.094 20.094,20.094 h 762.66 c 11.136,0 20.125,-8.9582 20.125,-20.094 V 87.82 c 0,-11.136 -8.9894,-20.094 -20.125,-20.094 z m 24.511,51.349 719.6,0.66931 1.4286,435.24 -721.03,-0.0899 z"
         id="path45"
         inkscape:connector-curvature="0" />
      <path
         d="m 134.79,70.309 438.04,0.70373 c 16.231,0.02608 17.5,23.38 17.5,23.575 -0.005,80.78 -1.497,139.74 -1.5395,220.52 l -41.072,0.86761 6.6627,-196.62 c 0,0 -381.31,1.3243 -381.39,1.1112 0.15507,-0.0415 -32.391,-39.979 -38.202,-50.157 z"
         id="path47"
         style="fill:url(#linearGradient51)"
         inkscape:connector-curvature="0" />
    </g>
    <path
       transform="matrix(0.81863,0,0,0.71357,352.42,434.56)"
       d="m -122.14,-52.638 a 4.2857,5 0 1 1 -8.5714,0 4.2857,5 0 1 1 8.5714,0 z"
       id="path51"
       inkscape:connector-curvature="0"
       style="fill:#1a1a1a;filter:url(#n)" />
    <path
       transform="matrix(1,0,0,1.0435,409.63,100.79)"
       d="m -142.14,737.36 a 17.143,16.429 0 1 1 -34.286,0 17.143,16.429 0 1 1 34.286,0 z"
       id="path53"
       style="fill:url(#linearGradient53)"
       inkscape:connector-curvature="0" />
    <rect
       transform="matrix(0.14371,0,0,0.16115,261.38,768.21)"
       x="-122.39"
       y="598.08002"
       width="86.209"
       height="78.570999"
       ry="11.71"
       id="rect55"
       style="fill-opacity:0;stroke:#fdfdfd;stroke-width:4.67320013;filter:url(#l)" />
    <rect
       x="96.860001"
       y="422.44"
       width="319.82999"
       height="421.26001"
       ry="1.9804"
       id="rect57"
       style="fill:#ffffff;stroke:#fdfdfd;stroke-width:1.22940004" />
    <g
       transform="translate(418.2,-200.01)"
       id="g79">
      <g
         transform="matrix(0.24388,0,0,0.70002,618.49,681.38)"
         id="g63">
        <path
           d="m -190.63,67.726 c -11.136,0 -20.094,8.9582 -20.094,20.094 v 497.66 c 0,11.136 8.9582,20.094 20.094,20.094 h 762.66 c 11.136,0 20.125,-8.9582 20.125,-20.094 V 87.82 c 0,-11.136 -8.9894,-20.094 -20.125,-20.094 z m 24.511,51.349 719.6,0.66931 3.5518,418.33 -729.34,-0.69566 z"
           id="path59"
           inkscape:connector-curvature="0" />
        <path
           d="m 134.79,70.309 438.04,0.70373 c 16.231,0.02608 17.5,23.38 17.5,23.575 -0.005,80.78 -1.497,139.74 -1.5395,220.52 l -41.072,0.86761 6.6627,-196.62 c 0,0 -381.31,1.3243 -381.39,1.1112 0.15507,-0.0415 -32.391,-39.979 -38.202,-50.157 z"
           id="path61"
           style="fill:url(#linearGradient55)"
           inkscape:connector-curvature="0" />
      </g>
      <rect
         transform="matrix(0.55252,0,0,0.72206,489.77,317.05)"
         x="157.89"
         y="620.46002"
         width="319.85001"
         height="406.01001"
         ry="1.9087"
         id="rect65"
         style="fill:#ffffff;stroke:#fdfdfd;stroke-width:1.20700002" />
      <path
         transform="matrix(0.59346,0,0,0.53427,736.61,769.07)"
         d="m -122.14,-52.638 c 0,2.7614 -1.9188,5 -4.2857,5 -2.3669,0 -4.2857,-2.2386 -4.2857,-5 0,-2.7614 1.9188,-5 4.2857,-5 2.3669,0 4.2857,2.2386 4.2857,5 z"
         id="path67"
         inkscape:connector-curvature="0"
         style="fill:#1a1a1a;filter:url(#o)" />
      <g
         transform="matrix(0.72494,0,0,0.74873,436.52,280.97)"
         id="g73">
        <path
           transform="matrix(1,0,0,1.0435,470.67,298.12)"
           d="m -142.14,737.36 c 0,9.0732 -7.6751,16.429 -17.143,16.429 -9.4679,0 -17.143,-7.3553 -17.143,-16.429 0,-9.0737 7.6751,-16.429 17.143,-16.429 9.4679,0 17.143,7.3553 17.143,16.429 z"
           id="path69"
           style="fill:url(#linearGradient57)"
           inkscape:connector-curvature="0" />
        <rect
           transform="matrix(0.14371,0,0,0.16115,322.42,965.54)"
           x="-122.39"
           y="598.08002"
           width="86.209"
           height="78.570999"
           ry="11.71"
           id="rect71"
           style="fill-opacity:0;stroke:#fdfdfd;stroke-width:4.67320013;filter:url(#m)" />
      </g>
      <rect
         transform="matrix(0.72494,0,0,0.74873,258.81,228.86)"
         x="534.10999"
         y="693"
         width="44.453999"
         height="9.6037998"
         ry="4.8018999"
         id="rect75"
         style="stroke:#fdfdfd;stroke-width:0.40000001;filter:url(#q)" />
      <rect
         transform="matrix(0.79123,0,0,0.87335,222.62,141.12)"
         x="536.13"
         y="696.28003"
         width="38.897999"
         height="6.5732999"
         ry="3.2867"
         id="rect77"
         style="fill:#4d4d4d;filter:url(#p)" />
    </g>
    <rect
       x="482.45999"
       y="908.03003"
       width="385.78"
       height="48.636002"
       ry="14.29"
       id="rect81"
       style="stroke:#fdfdfd;stroke-width:0.33570001" />
  </g>
</svg>
